<?xml version="1.0" standalone="no"?>
<!DOCTYPE svg PUBLIC "-//W3C//DTD SVG 20010904//EN"
 "http://www.w3.org/TR/2001/REC-SVG-20010904/DTD/svg10.dtd">
<svg version="1.0" xmlns="http://www.w3.org/2000/svg"
 width="260.000000pt" height="260.000000pt" viewBox="0 0 260.000000 260.000000"
 preserveAspectRatio="xMidYMid meet">
<metadata>
Created by potrace 1.11, written by Peter Selinger 2001-2013
</metadata>
<g transform="translate(0.000000,260.000000) scale(0.100000,-0.100000)"
fill="#000000" stroke="none">
<path d="M1890 2534 c-106 -36 -185 -81 -251 -142 -78 -72 -90 -101 -110 -277
-10 -88 -26 -175 -38 -210 -12 -33 -23 -64 -24 -70 -1 -5 21 -11 50 -13 l52
-3 117 -172 c181 -266 234 -399 233 -587 0 -392 -307 -682 -696 -657 -184 12
-318 69 -432 185 -135 136 -191 295 -191 537 0 126 7 175 52 362 18 73 29 135
25 139 -11 11 -81 -43 -127 -99 -80 -97 -134 -236 -157 -407 -41 -297 52 -598
246 -804 235 -247 628 -337 972 -222 290 97 497 303 586 584 26 82 28 97 28
272 0 162 -3 196 -24 275 -67 254 -198 450 -389 580 -73 49 -74 50 -50 64 48
30 126 119 151 173 37 77 56 155 68 273 9 96 4 245 -10 245 -3 0 -40 -12 -81
-26z"/>
<path d="M1519 1493 c-10 -11 -13 -36 -10 -82 3 -36 5 -115 5 -176 1 -101 -1
-115 -27 -167 -38 -77 -106 -137 -193 -168 -62 -22 -84 -25 -211 -25 l-143 1
-6 -34 c-6 -30 -2 -38 32 -73 22 -22 73 -57 114 -77 74 -36 77 -37 195 -37
119 0 121 1 200 39 142 69 240 192 275 345 31 132 -35 328 -147 436 -40 38
-63 44 -84 18z"/>
</g>
</svg>
